<svg width="28" height="28" viewBox="0 0 28 28" fill="none" xmlns="http://www.w3.org/2000/svg">
<path d="M23.917 17.7918C23.4387 17.7918 23.042 17.3952 23.042 16.9168C23.042 16.4385 23.4387 16.0418 23.917 16.0418C24.6053 16.0418 24.757 15.9368 24.7687 15.9368C24.792 15.8668 24.792 15.4585 24.792 15.1668V12.8335C24.792 12.5418 24.792 12.1452 24.7453 12.0402C24.7337 12.0518 24.5587 11.9585 23.917 11.9585C23.4387 11.9585 23.042 11.5618 23.042 11.0835C23.042 10.6052 23.4387 10.2085 23.917 10.2085C26.3437 10.2085 26.542 11.3985 26.542 12.8335V15.1668C26.542 16.6018 26.3437 17.7918 23.917 17.7918Z" fill="#0C6170"/>
<path d="M11.6671 19.5417C11.4688 19.5417 11.2588 19.4717 11.0954 19.3317C10.7338 19.0167 10.6871 18.4683 11.0021 18.095L13.4288 15.26C13.4638 15.155 13.4288 15.0617 13.4054 15.015C13.3704 14.9567 13.3004 14.875 13.1488 14.875H10.4654C9.73044 14.875 9.06544 14.49 8.69211 13.86C8.31878 13.23 8.31878 12.46 8.69211 11.8183L10.9671 8.80833C11.2588 8.42333 11.8071 8.34166 12.1921 8.63333C12.5771 8.92499 12.6588 9.47333 12.3671 9.85833L10.1621 12.775C10.1504 12.81 10.1971 12.915 10.2204 12.9733C10.2554 13.0317 10.3254 13.1133 10.4771 13.1133H13.1604C13.8954 13.1133 14.5604 13.4983 14.9338 14.1283C15.3071 14.7583 15.3071 15.5283 14.9338 16.17C14.9104 16.2167 14.8754 16.2633 14.8404 16.2983L12.3438 19.215C12.1571 19.4367 11.9121 19.5417 11.6671 19.5417Z" fill="#0C6170"/>
<path d="M8.16634 23.0418C3.02134 23.0418 1.45801 21.4785 1.45801 16.3335V11.6668C1.45801 6.52183 3.02134 4.9585 8.16634 4.9585C8.64467 4.9585 9.04134 5.35516 9.04134 5.8335C9.04134 6.31183 8.64467 6.7085 8.16634 6.7085C4.00134 6.7085 3.20801 7.50183 3.20801 11.6668V16.3335C3.20801 20.4985 4.00134 21.2918 8.16634 21.2918C8.64467 21.2918 9.04134 21.6885 9.04134 22.1668C9.04134 22.6452 8.64467 23.0418 8.16634 23.0418Z" fill="#0C6170"/>
<path d="M15.167 23.0418C14.6887 23.0418 14.292 22.6452 14.292 22.1668C14.292 21.6885 14.6887 21.2918 15.167 21.2918C19.332 21.2918 20.1253 20.4985 20.1253 16.3335V11.6668C20.1253 7.50183 19.332 6.7085 15.167 6.7085C14.6887 6.7085 14.292 6.31183 14.292 5.8335C14.292 5.35516 14.6887 4.9585 15.167 4.9585C20.312 4.9585 21.8753 6.52183 21.8753 11.6668V16.3335C21.8753 21.4785 20.312 23.0418 15.167 23.0418Z" fill="#0C6170"/>
</svg>
