<svg width="28" height="19" viewBox="0 0 28 19" fill="none" xmlns="http://www.w3.org/2000/svg">
<path d="M20.4972 11.9736C18.6108 11.9736 17.0762 13.5083 17.0762 15.3947C17.0762 17.2811 18.6108 18.8157 20.4972 18.8157C22.3839 18.8157 23.9182 17.2811 23.9182 15.3947C23.9182 13.5083 22.3836 11.9736 20.4972 11.9736ZM20.4972 17.1052C19.5539 17.1052 18.7867 16.338 18.7867 15.3947C18.7867 14.4513 19.5539 13.6841 20.4972 13.6841C21.4405 13.6841 22.2077 14.4513 22.2077 15.3947C22.2077 16.338 21.4405 17.1052 20.4972 17.1052Z" fill="#0C6170"/>
<path d="M8.80873 11.9736C6.92233 11.9736 5.3877 13.5083 5.3877 15.3947C5.3877 17.2811 6.92233 18.8157 8.80873 18.8157C10.6951 18.8157 12.2298 17.2811 12.2298 15.3947C12.2298 13.5083 10.6951 11.9736 8.80873 11.9736ZM8.80873 17.1052C7.8654 17.1052 7.09821 16.338 7.09821 15.3947C7.09821 14.4513 7.8654 13.6841 8.80873 13.6841C9.75179 13.6841 10.5192 14.4513 10.5192 15.3947C10.5192 16.338 9.75206 17.1052 8.80873 17.1052Z" fill="#0C6170"/>
<path d="M22.8019 2.18143C22.6565 1.89264 22.3609 1.71045 22.0376 1.71045H17.5332V3.42097H21.5101L23.839 8.05302L25.3676 7.2844L22.8019 2.18143Z" fill="#0C6170"/>
<path d="M17.9314 14.5679H11.46V16.2784H17.9314V14.5679Z" fill="#0C6170"/>
<path d="M6.24293 14.5679H3.27808C2.80568 14.5679 2.42285 14.9507 2.42285 15.4231C2.42285 15.8955 2.80573 16.2783 3.27808 16.2783H6.24298C6.71539 16.2783 7.09821 15.8955 7.09821 15.4231C7.09821 14.9507 6.71534 14.5679 6.24293 14.5679Z" fill="#0C6170"/>
<path d="M26.9601 9.33938L25.2778 7.17273C25.1162 6.96404 24.8668 6.84201 24.6025 6.84201H18.3876V0.855232C18.3876 0.382824 18.0047 0 17.5324 0H3.27808C2.80568 0 2.42285 0.382877 2.42285 0.855232C2.42285 1.32759 2.80573 1.71046 3.27808 1.71046H16.6771V7.69724C16.6771 8.16965 17.06 8.55247 17.5323 8.55247H24.1837L25.4292 10.1569V14.5678H23.063C22.5905 14.5678 22.2077 14.9506 22.2077 15.423C22.2077 15.8954 22.5906 16.2782 23.063 16.2782H26.2844C26.7568 16.2782 27.1397 15.8954 27.1397 15.423V9.86395C27.1397 9.67407 27.0764 9.48934 26.9601 9.33938Z" fill="#0C6170"/>
<path d="M6.18592 10.2344H2.25172C1.77931 10.2344 1.39648 10.6173 1.39648 11.0896C1.39648 11.562 1.77936 11.9448 2.25172 11.9448H6.18587C6.65827 11.9448 7.0411 11.562 7.0411 11.0896C7.0411 10.6173 6.65827 10.2344 6.18592 10.2344Z" fill="#0C6170"/>
<path d="M8.15343 6.87061H0.855231C0.382877 6.87061 0 7.25348 0 7.72589C0 8.1983 0.382877 8.58112 0.855231 8.58112H8.15343C8.62584 8.58112 9.00866 8.19824 9.00866 7.72589C9.00866 7.25354 8.62584 6.87061 8.15343 6.87061Z" fill="#0C6170"/>
<path d="M9.54991 3.50635H2.25172C1.77931 3.50635 1.39648 3.88922 1.39648 4.36158C1.39648 4.83399 1.77936 5.21681 2.25172 5.21681H9.54991C10.0223 5.21681 10.4051 4.83393 10.4051 4.36158C10.4051 3.88922 10.0223 3.50635 9.54991 3.50635Z" fill="#0C6170"/>
</svg>
