<svg width="24" height="24" viewBox="0 0 24 24" fill="none" xmlns="http://www.w3.org/2000/svg">
<path opacity="0.4" d="M11.9993 21.9986C11.2303 21.9986 10.4623 21.7066 9.87526 21.1236L9.14526 20.3936C8.86226 20.1116 8.48326 19.9556 8.08126 19.9546H7.05426C5.39426 19.9546 4.04326 18.6036 4.04326 16.9436V15.9156C4.04226 15.5146 3.88626 15.1356 3.60326 14.8506L2.88526 14.1336C1.70926 12.9646 1.70426 11.0536 2.87426 9.87664L3.60426 9.14564C3.88626 8.86264 4.04226 8.48364 4.04326 8.08164V7.05564C4.04326 5.39464 5.39426 4.04364 7.05426 4.04364H8.08226C8.48326 4.04364 8.86126 3.88764 9.14626 3.60264L9.86526 2.88564C11.0343 1.70964 12.9443 1.70364 14.1223 2.87464L14.8523 3.60464C15.1363 3.88764 15.5143 4.04364 15.9153 4.04364H16.9433C18.6033 4.04364 19.9543 5.39464 19.9543 7.05564V8.08264C19.9553 8.48364 20.1113 8.86264 20.3943 9.14764L21.1123 9.86564C21.6813 10.4316 21.9963 11.1856 21.9993 11.9906C22.0013 12.7906 21.6933 13.5436 21.1323 14.1126C21.1223 14.1226 21.1133 14.1336 21.1033 14.1426L20.3933 14.8526C20.1113 15.1356 19.9553 15.5146 19.9543 15.9166V16.9436C19.9543 18.6036 18.6033 19.9546 16.9433 19.9546H15.9153C15.5143 19.9556 15.1353 20.1116 14.8513 20.3946L14.1323 21.1126C13.5463 21.7026 12.7723 21.9986 11.9993 21.9986Z" fill="black"/>
<path d="M13.9414 13.9584C14.1973 13.7025 14.5814 13.6283 14.9053 13.764C15.0001 13.796 15.1064 13.8638 15.1943 13.9506C15.3543 14.1105 15.4414 14.3298 15.4414 14.5697C15.4414 14.8087 15.3543 15.0289 15.1953 15.1879C15.0165 15.3547 14.7989 15.4446 14.5771 15.4447C14.3432 15.4447 14.1331 15.3597 13.9521 15.1918C13.8731 15.1128 13.8127 15.0216 13.7627 14.9096C13.7088 14.7877 13.7021 14.6576 13.7021 14.5697C13.7022 14.4817 13.7087 14.3508 13.7627 14.2289C13.8136 14.1162 13.8884 14.0204 13.9414 13.9584ZM13.9531 8.80995C14.2941 8.46995 14.8494 8.46995 15.1904 8.80995C15.5314 9.15195 15.5314 9.70624 15.1904 10.0482L10.0508 15.1879C9.88582 15.3528 9.66656 15.4437 9.43262 15.4437C9.19863 15.4437 8.97947 15.3529 8.81348 15.1879C8.47248 14.8459 8.47248 14.2906 8.81348 13.9496L13.9531 8.80995ZM9.10645 8.62049C9.40845 8.48249 9.80985 8.56385 10.0479 8.81385C10.1328 8.89885 10.1982 8.99225 10.2412 9.08924C10.2881 9.19314 10.3115 9.31123 10.3115 9.43007C10.3115 9.66801 10.2169 9.88919 10.043 10.0512C9.87797 10.2162 9.66375 10.3051 9.42676 10.3051C9.20476 10.3051 8.98652 10.2142 8.81152 10.0502C8.64556 9.88521 8.55179 9.65902 8.55176 9.43007C8.55176 9.21207 8.64366 8.98783 8.80566 8.81483C8.89462 8.72487 9.0005 8.65651 9.10645 8.62049Z" fill="black"/>
</svg>
