<svg width="52" height="15" viewBox="0 0 52 15" fill="none" xmlns="http://www.w3.org/2000/svg">
<path fill-rule="evenodd" clip-rule="evenodd" d="M24.5839 9.79934L26.4296 4.93801H27.9452L24.1591 14.7515H22.7372L23.8544 11.6841L21.1083 4.93801H22.6865L24.5839 9.79934ZM2.69134 0.0161361C3.82091 0.17499 5.67541 0.513553 7.38372 1.18118C10.2332 2.29477 12.2166 5.07129 11.3769 8.20559C11.0454 9.44115 10.3364 10.4749 9.40716 11.2154C9.45397 11.4203 9.49574 11.6187 9.53411 11.8052C9.63539 12.3032 9.7092 12.7348 9.75677 13.0425C9.7805 13.1964 9.79801 13.319 9.80951 13.4048C9.81565 13.4478 9.81913 13.4814 9.8222 13.5044L9.82611 13.5308L9.82708 13.5386V13.5406L9.82806 13.5415C9.87717 13.9452 9.58907 14.3129 9.18548 14.3628C8.78182 14.4119 8.41428 14.1247 8.36517 13.7202L8.36419 13.7154L8.36126 13.6939C8.35896 13.6739 8.35492 13.6441 8.34954 13.605C8.33881 13.5276 8.32269 13.4127 8.29974 13.2681C8.25524 12.9788 8.18569 12.5703 8.08978 12.0991C8.08441 12.07 8.07834 12.0404 8.0722 12.0113C6.92965 12.4992 5.62097 12.6217 4.32806 12.2749C2.83775 11.8759 1.55955 11.0135 0.782161 9.77102C-0.00203242 8.51784 -0.235734 6.94159 0.260677 5.2134C0.71643 3.62584 0.830947 2.43463 0.841732 1.68801C0.855544 0.801647 1.62167 -0.134909 2.69134 0.0161361ZM30.3993 5.26907C30.4202 5.25333 30.4405 5.23641 30.4618 5.22121C30.9022 4.90669 31.446 4.74956 32.0917 4.74953C32.7333 4.74956 33.2891 4.90669 33.7587 5.22121C34.2326 5.53157 34.5993 5.95755 34.8593 6.49856C35.1193 7.03534 35.249 7.64774 35.249 8.33547C35.2489 9.01477 35.1219 9.62559 34.8661 10.1665C34.6104 10.7073 34.2494 11.1353 33.7841 11.4497C33.3187 11.7641 32.7731 11.9214 32.1484 11.9214C31.486 11.9214 30.93 11.7641 30.4814 11.4497C30.3857 11.3827 30.2964 11.3083 30.2109 11.231V11.7329H28.871V2.67336H30.3993V5.26907ZM51.1884 11.7329H49.8486V11.231C49.763 11.3084 49.6737 11.3826 49.5781 11.4497C49.1295 11.7641 48.5734 11.9213 47.9111 11.9214C47.2864 11.9214 46.7407 11.7641 46.2753 11.4497C45.81 11.1353 45.4491 10.7073 45.1933 10.1665C44.9375 9.62559 44.8095 9.01477 44.8095 8.33547C44.8095 7.64779 44.9376 7.03532 45.1933 6.49856C45.4533 5.95762 45.8201 5.53155 46.2939 5.22121C46.7677 4.90669 47.3261 4.74956 47.9677 4.74953C48.6132 4.7496 49.1538 4.90693 49.5898 5.22121C49.6134 5.23788 49.6361 5.25662 49.6591 5.27395V2.67336H51.1884V11.7329ZM14.2802 6.48586H18.5702V2.67336H20.08V11.7329H18.5702V7.90774H14.2802V11.7329H12.7636V2.67336H14.2802V6.48586ZM39.8378 4.91262C40.0514 4.89589 40.2589 4.90455 40.4599 4.93801V6.35403C40.2587 6.29539 40.0257 6.27643 39.7617 6.29739C39.5019 6.31841 39.2671 6.39143 39.0576 6.51711C38.848 6.63033 38.6761 6.7756 38.5419 6.95168C38.412 7.12775 38.3148 7.32887 38.2519 7.5552C38.189 7.77739 38.1581 8.01893 38.1581 8.27883V11.7329H36.6357V4.93801H37.9755V6.02493C38.0268 5.93335 38.0832 5.8453 38.1454 5.76223C38.288 5.57363 38.4582 5.41799 38.6552 5.29641C38.8228 5.18334 39.0079 5.09559 39.2089 5.03274C39.4142 4.96572 39.6241 4.92521 39.8378 4.91262ZM43.3036 11.732H41.787V4.93801H43.3036V11.732ZM2.48626 1.47512C2.47784 1.47359 2.44773 1.47137 2.40033 1.51711C2.34968 1.567 2.3169 1.64196 2.31536 1.7095C2.30228 2.58511 2.16942 3.90557 1.67767 5.61965C1.28555 6.98245 1.48797 8.12179 2.03118 8.98977C2.58065 9.86847 3.52182 10.5336 4.70892 10.8521C5.75718 11.133 6.81893 10.9997 7.72064 10.5523C7.57177 10.022 7.39526 9.48928 7.19036 9.00735C6.79665 8.08103 6.14103 7.23053 5.56243 6.59817C5.27639 6.28605 5.01623 6.03469 4.82904 5.86282C4.73547 5.77692 4.66017 5.71125 4.61029 5.6675C4.58501 5.64605 4.56593 5.62963 4.55365 5.61965L4.53997 5.60891L4.53802 5.60696C4.22261 5.35064 4.17526 4.88626 4.43158 4.57082C4.68865 4.25559 5.15159 4.20742 5.46771 4.46438H5.46868V4.46535L5.47064 4.46633L5.47747 4.47219L5.49798 4.48879C5.51563 4.50337 5.54055 4.52424 5.57122 4.55032C5.6326 4.60325 5.71961 4.67957 5.82611 4.77688C6.03791 4.97258 6.32936 5.25409 6.64935 5.60403C7.28238 6.29556 8.05933 7.28709 8.54583 8.43118C8.70622 8.80877 8.84966 9.20829 8.97552 9.60891C9.42677 9.11697 9.76986 8.51217 9.95404 7.82375C10.5491 5.60226 9.19488 3.47106 6.84759 2.55325C5.29545 1.9463 3.57137 1.62787 2.48626 1.47512ZM31.8652 6.10891C31.4796 6.10893 31.165 6.20262 30.9218 6.39114C30.6787 6.57561 30.4982 6.83612 30.3808 7.17141C30.2676 7.50267 30.2109 7.89104 30.2109 8.33547C30.2109 8.77571 30.2676 9.1641 30.3808 9.49953C30.4982 9.83477 30.6804 10.097 30.9277 10.2857C31.1792 10.4701 31.5085 10.5619 31.915 10.562C32.309 10.562 32.6348 10.4641 32.8906 10.2671C33.1462 10.0701 33.3353 9.80352 33.457 9.46828C33.5827 9.12866 33.6454 8.75055 33.6454 8.33547C33.6454 7.92454 33.5827 7.55082 33.457 7.21535C33.3312 6.87589 33.136 6.60773 32.872 6.41067C32.6078 6.20937 32.2719 6.10892 31.8652 6.10891ZM48.1933 6.10891C47.7868 6.10901 47.4515 6.20946 47.1874 6.41067C46.9234 6.6077 46.7283 6.8759 46.6025 7.21535C46.4767 7.5508 46.414 7.92458 46.414 8.33547C46.414 8.75055 46.4741 9.12866 46.5956 9.46828C46.7215 9.80356 46.9132 10.0701 47.1689 10.2671C47.4246 10.4639 47.7496 10.562 48.1435 10.562C48.5501 10.562 48.8775 10.4701 49.1249 10.2857C49.3764 10.0971 49.5586 9.83472 49.6718 9.49953C49.7892 9.1641 49.8485 8.77571 49.8486 8.33547C49.8486 7.891 49.7892 7.50269 49.6718 7.17141C49.5586 6.83603 49.3808 6.57562 49.1376 6.39114C48.8944 6.20241 48.5791 6.10891 48.1933 6.10891ZM43.3036 3.90676H41.787V2.51614H43.3036V3.90676Z" fill="#34A853"/>
</svg>
