<svg width="104" height="55" viewBox="0 0 104 55" fill="none" xmlns="http://www.w3.org/2000/svg">
<path d="M14.529 17.4612C13.4641 17.4612 12.6653 17.2203 12.1329 16.7385C11.6004 16.2314 11.3342 15.5341 11.3342 14.6467C11.3342 13.7592 11.6765 13.0239 12.3611 12.4407C13.071 11.8321 13.9458 11.5279 14.9854 11.5279C15.9236 11.5279 16.6843 11.7561 17.2675 12.2125C17.8507 12.6689 18.1423 13.3155 18.1423 14.1522C18.1423 15.1664 17.8126 15.9778 17.1534 16.5864C16.4941 17.1696 15.6193 17.4612 14.529 17.4612ZM21.3751 29.2897C21.7048 29.2897 21.9583 29.4545 22.1358 29.7841C22.3387 30.0884 22.4401 30.4814 22.4401 30.9632C22.4401 31.5463 22.3514 32.0027 22.1739 32.3324C21.9964 32.662 21.7175 32.9536 21.3371 33.2071C19.5622 34.3735 17.1914 35.9836 14.2247 38.0374C13.2359 43.3115 11.9554 47.4571 10.3833 50.4745C8.81123 53.4918 6.8081 55.0005 4.37392 55.0005C3.0554 55.0005 2.00313 54.5948 1.21709 53.7834C0.405697 52.9974 0 51.9578 0 50.6647C0 48.8644 0.697291 46.9374 2.09187 44.8835C3.48646 42.8551 6.11081 40.3448 9.96493 37.3528L10.2312 35.4131C10.5861 32.9789 10.8651 30.5828 11.0679 28.2247C11.2201 26.8555 11.4609 24.8144 11.7906 22.1013C11.892 21.366 12.1709 20.8335 12.6273 20.5039C13.0837 20.1489 13.781 19.9714 14.7192 19.9714C15.4799 19.9714 15.9743 20.0855 16.2025 20.3137C16.4561 20.5419 16.5829 20.8588 16.5829 21.2645C16.5829 22.4309 16.1645 25.6511 15.3277 30.9251L14.9474 33.5495C16.9759 32.0281 18.8269 30.7096 20.5004 29.5939C20.83 29.3911 21.1216 29.2897 21.3751 29.2897ZM4.79229 51.3112C5.45155 51.3112 6.1742 50.5632 6.96023 49.0672C7.74627 47.5712 8.4816 45.1624 9.16621 41.8408C7.23915 43.489 5.85725 44.9723 5.0205 46.2908C4.15839 47.6346 3.72734 48.8137 3.72734 49.8279C3.72734 50.8168 4.08232 51.3112 4.79229 51.3112Z" fill="#0C6170"/>
<path d="M23.5874 37.8853C22.4463 37.8853 21.5082 37.3655 20.7728 36.3259C20.0629 35.261 19.7079 33.9425 19.7079 32.3704C19.7079 30.4687 19.8347 28.7318 20.0882 27.1598C20.3418 25.5624 20.7602 23.8762 21.3434 22.1013C21.5969 21.3406 21.9519 20.7955 22.4083 20.4658C22.8647 20.1362 23.5874 19.9714 24.5762 19.9714C25.1341 19.9714 25.5144 20.0601 25.7173 20.2376C25.9455 20.4151 26.0596 20.6813 26.0596 21.0363C26.0596 21.2392 25.9201 21.9238 25.6412 23.0902C25.3876 24.0283 25.1848 24.8777 25.0327 25.6384C24.5255 28.3008 24.272 30.0757 24.272 30.9632C24.272 31.4956 24.3354 31.876 24.4621 32.1042C24.5889 32.307 24.7918 32.4084 25.0707 32.4084C25.451 32.4084 25.9201 32.0281 26.478 31.2674C27.0611 30.5067 27.6697 29.3531 28.3036 27.8063C28.9628 26.2596 29.5967 24.358 30.2053 22.1013C30.4081 21.3406 30.7124 20.7955 31.1181 20.4658C31.5492 20.1362 32.1831 19.9714 33.0198 19.9714C33.603 19.9714 34.0087 20.0475 34.2369 20.1996C34.4651 20.3264 34.5792 20.5799 34.5792 20.9603C34.5792 21.5942 34.2623 23.331 33.6284 26.1709C32.9184 29.4164 32.5634 31.4196 32.5634 32.1802C32.5634 32.662 32.6648 33.0423 32.8677 33.3213C33.0705 33.5748 33.3368 33.7016 33.6664 33.7016C34.1735 33.7016 34.7694 33.3973 35.454 32.7888C36.164 32.1549 37.1021 31.1406 38.2685 29.7461C38.5728 29.3911 38.9151 29.2136 39.2954 29.2136C39.6251 29.2136 39.8786 29.3657 40.0561 29.67C40.259 29.9743 40.3604 30.3926 40.3604 30.9251C40.3604 31.9394 40.1195 32.7254 39.6377 33.2832C38.5474 34.6271 37.3684 35.7301 36.1006 36.5922C34.8581 37.4543 33.4382 37.8853 31.8408 37.8853C30.6237 37.8853 29.7235 37.4162 29.1403 36.4781C28.5825 35.5399 28.3036 34.2214 28.3036 32.5225C27.8725 34.2467 27.226 35.5779 26.3638 36.5161C25.5017 37.4289 24.5762 37.8853 23.5874 37.8853Z" fill="#0C6170"/>
<path d="M51.6913 29.2136C52.0209 29.2136 52.2745 29.3657 52.452 29.67C52.6548 29.9743 52.7562 30.3926 52.7562 30.9251C52.7562 31.9394 52.5153 32.7254 52.0336 33.2832C50.9433 34.6271 49.7515 35.7301 48.4584 36.5922C47.1906 37.4543 45.7453 37.8853 44.1225 37.8853C41.8912 37.8853 40.2303 36.8711 39.14 34.8426C38.0751 32.8141 37.5426 30.1898 37.5426 26.9696C37.5426 23.8762 37.9356 20.3517 38.7217 16.3962C39.533 12.4407 40.7121 9.043 42.2588 6.20315C43.8309 3.36329 45.6946 1.94336 47.8498 1.94336C49.0669 1.94336 50.0178 2.51387 50.7024 3.65488C51.4124 4.77054 51.7673 6.38064 51.7673 8.48518C51.7673 11.5025 50.9306 15.0016 49.2571 18.9825C47.5836 22.9634 45.3142 26.9062 42.449 30.811C42.6265 31.8506 42.9181 32.5986 43.3238 33.055C43.7295 33.4861 44.2619 33.7016 44.9212 33.7016C45.9608 33.7016 46.8736 33.41 47.6597 32.8268C48.4457 32.2183 49.4473 31.1914 50.6643 29.7461C50.9686 29.3911 51.3109 29.2136 51.6913 29.2136ZM47.0131 5.70871C46.4299 5.70871 45.7706 6.76098 45.0353 8.86551C44.3 10.9701 43.6534 13.5817 43.0956 16.7005C42.5377 19.8192 42.2335 22.8112 42.1828 25.6765C43.983 22.7098 45.4156 19.7432 46.4806 16.7765C47.5456 13.7846 48.078 11.0588 48.078 8.59928C48.078 6.67223 47.723 5.70871 47.0131 5.70871Z" fill="#0C6170"/>
<path d="M56.1098 37.8853C54.6138 37.8853 53.3333 37.5176 52.2683 36.7823C51.2287 36.0216 50.4427 35.0328 49.9102 33.8157C49.3777 32.5986 49.1115 31.2928 49.1115 29.8982C49.1115 27.9712 49.4665 26.2596 50.1764 24.7636C50.9118 23.2423 51.9007 22.0632 53.1431 21.2265C54.3855 20.3644 55.7801 19.9334 57.3268 19.9334C58.8229 19.9334 60.1033 20.3137 61.1683 21.0744C62.2332 21.8097 63.032 22.7859 63.5644 24.003C64.0969 25.2201 64.3632 26.5259 64.3632 27.9205C64.3632 29.8475 63.9955 31.5717 63.2602 33.093C62.5248 34.589 61.5233 35.7681 60.2555 36.6302C59.013 37.4669 57.6311 37.8853 56.1098 37.8853ZM56.5281 33.7777C57.3902 33.7777 58.1129 33.3086 58.6961 32.3704C59.3046 31.4322 59.6089 30.063 59.6089 28.2628C59.6089 26.8682 59.3553 25.8159 58.8482 25.1059C58.3411 24.396 57.7325 24.041 57.0226 24.041C56.1098 24.041 55.3491 24.5101 54.7405 25.4483C54.1573 26.3611 53.8657 27.7303 53.8657 29.5559C53.8657 31.0012 54.1193 32.0661 54.6264 32.7507C55.1336 33.4354 55.7675 33.7777 56.5281 33.7777Z" fill="#0C6170"/>
<path fill-rule="evenodd" clip-rule="evenodd" d="M84.446 26.9645C86.0151 26.9647 87.364 28.0399 87.6608 29.5807L89.2477 36.5182C89.251 36.5326 89.2539 36.5477 89.2565 36.5622C89.3485 37.0743 89.0079 37.5638 88.4958 37.6559C87.9536 37.7535 87.4316 37.405 87.3141 36.8669L87.2907 36.7575C86.7015 34.0537 86.2663 32.1117 85.986 30.9313L85.9636 30.8386C85.8838 30.5042 85.8175 30.2352 85.7643 30.0319C85.5724 29.2991 84.9127 28.9504 84.4011 28.946C83.8624 28.9415 83.2826 29.3186 83.1052 30.0319C82.8931 30.8847 82.4678 33.1308 81.8278 36.7692C81.7293 37.3284 81.221 37.7211 80.655 37.6755C80.6228 37.6729 80.5909 37.6678 80.5593 37.6618C80.071 37.5689 79.7506 37.0983 79.8434 36.61L81.1882 29.5436C81.5445 28.0083 82.8698 26.9645 84.446 26.9645ZM90.2966 24.4909C91.4254 23.4009 93.1426 23.2382 94.4264 24.1403L100.387 28.028C100.4 28.0361 100.413 28.0448 100.424 28.0534C100.846 28.3579 100.942 28.9467 100.637 29.3688C100.315 29.8156 99.6973 29.9274 99.2389 29.6218L99.1462 29.5602C96.1076 27.5333 94.1844 26.2737 93.3766 25.7819C92.7294 25.3879 92.0114 25.5956 91.6403 25.9479C91.2501 26.3189 91.0959 26.9925 91.4636 27.6286C91.9034 28.3894 93.1572 30.3011 95.2243 33.363C95.5418 33.8336 95.4491 34.4684 95.0104 34.8288C94.9855 34.8493 94.9593 34.8687 94.9323 34.8864C94.5165 35.1588 93.9586 35.0425 93.6862 34.6266L89.7448 28.6091C88.9346 27.2572 89.1628 25.5857 90.2966 24.4909ZM74.7702 24.1364C76.0697 23.2568 77.7836 23.4496 78.8932 24.5593C80.0077 25.6737 80.2064 27.3487 79.3727 28.6862L75.3268 34.6335C75.0473 35.0445 74.4879 35.1513 74.0768 34.8718C74.0501 34.8536 74.0243 34.8341 73.9997 34.8132C73.5673 34.4452 73.4855 33.8085 73.8112 33.3434C75.9314 30.3181 77.2185 28.4285 77.6716 27.6755C78.0503 27.0457 77.908 26.3695 77.5241 25.9919C77.1593 25.6331 76.4457 25.4131 75.7917 25.7956C74.9756 26.2731 73.0304 27.4986 69.9567 29.4723L69.863 29.5329C69.3994 29.8306 68.7829 29.708 68.4684 29.2555C68.1716 28.8282 68.2776 28.241 68.7048 27.944C68.7169 27.9356 68.7294 27.9274 68.7419 27.9196L74.7702 24.1364ZM102.322 14.1823C102.834 14.0902 103.324 14.4309 103.417 14.943C103.514 15.4853 103.165 16.0074 102.627 16.1247L102.518 16.1491C98.949 16.9269 96.7064 17.4351 95.7917 17.6745C95.0588 17.8665 94.71 18.5272 94.7057 19.0387C94.7014 19.5772 95.0787 20.1562 95.7917 20.3337C96.6445 20.5458 98.8905 20.972 102.529 21.612C103.088 21.7104 103.481 22.2179 103.435 22.7839C103.433 22.8161 103.429 22.8488 103.423 22.8805C103.329 23.3686 102.858 23.6893 102.37 23.5964L95.3034 22.2507C93.7682 21.8944 92.7244 20.5698 92.7243 18.9938C92.7243 17.4245 93.8004 16.0757 95.3415 15.779L102.279 14.1921C102.293 14.1888 102.308 14.1849 102.322 14.1823ZM65.7067 14.7546C65.7989 14.2423 66.2892 13.9017 66.8014 13.9938C66.8158 13.9964 66.8302 13.9994 66.8444 14.0026L73.7829 15.5895C75.3237 15.8864 76.399 17.2353 76.3991 18.8044C76.3991 20.3805 75.3553 21.7059 73.82 22.0622L66.7536 23.4069C66.2653 23.4998 65.7938 23.1794 65.7009 22.6911C65.6948 22.6595 65.6908 22.6275 65.6882 22.5954C65.6426 22.0294 66.0351 21.521 66.5944 21.4225C70.2329 20.7825 72.4789 20.3573 73.3317 20.1452C74.045 19.9677 74.4222 19.3879 74.4177 18.8493C74.4133 18.3377 74.0645 17.678 73.3317 17.486C72.417 17.2466 70.1744 16.7374 66.6052 15.9596L66.4968 15.9362C65.9586 15.8189 65.6092 15.2967 65.7067 14.7546ZM93.7751 2.93914C94.0796 2.51699 94.6693 2.42178 95.0915 2.72625C95.5381 3.04846 95.6498 3.66646 95.3444 4.12469L95.2819 4.21746C93.2548 7.25622 91.9953 9.17935 91.5036 9.98699C91.1095 10.6343 91.3172 11.3523 91.6696 11.7233C92.0406 12.1138 92.7149 12.268 93.3513 11.9001C94.1121 11.4602 96.023 10.2063 99.0847 8.13934C99.5553 7.82159 100.191 7.91438 100.551 8.3532C100.572 8.37819 100.591 8.40428 100.609 8.43133C100.881 8.84707 100.765 9.40503 100.349 9.67742L94.3317 13.6188C92.9798 14.4291 91.3084 14.2008 90.2136 13.0671C89.1234 11.9382 88.9606 10.2211 89.863 8.93719L93.7507 2.97625C93.7587 2.96392 93.7665 2.95108 93.7751 2.93914ZM74.0319 2.65105C74.4541 2.34658 75.0438 2.4418 75.3483 2.86395C75.3568 2.87574 75.3648 2.88791 75.3727 2.90008L79.2614 8.86102C80.1638 10.145 80 11.863 78.9098 12.9919C77.8151 14.1252 76.1444 14.3534 74.7927 13.5436L68.7741 9.60223C68.3586 9.32991 68.2423 8.77185 68.5143 8.35613C68.532 8.32917 68.5515 8.30292 68.572 8.27801C68.9324 7.83914 69.5681 7.74638 70.0388 8.06414C73.1004 10.1311 75.0113 11.385 75.7722 11.8249C76.4086 12.1928 77.0829 12.0377 77.4538 11.6471C77.8061 11.2761 78.0137 10.559 77.6198 9.9118C77.1282 9.10421 75.8686 7.18102 73.8415 4.14227L73.78 4.04949C73.4742 3.59131 73.5854 2.97344 74.0319 2.65105ZM80.8815 0.00359384C81.4475 -0.0419831 81.9558 0.350721 82.0544 0.909844C82.6944 4.54819 83.1196 6.79431 83.3317 7.64715C83.5091 8.36053 84.089 8.73758 84.6276 8.73309C85.1393 8.72872 85.799 8.38008 85.9909 7.64715C86.2303 6.73248 86.7395 4.49066 87.5173 0.921563L87.5407 0.812188C87.6582 0.274104 88.1802 -0.0744102 88.7223 0.0231251C89.2345 0.11527 89.575 0.604745 89.4831 1.11688C89.4805 1.13138 89.4776 1.14645 89.4743 1.16082L87.8874 8.09832C87.5906 9.63919 86.2417 10.7154 84.6725 10.7155C83.0964 10.7155 81.771 9.67075 81.4147 8.13543L80.07 1.06902C79.9772 0.580822 80.2976 0.110193 80.7858 0.0172657C80.8175 0.0112402 80.8494 0.00618651 80.8815 0.00359384Z" fill="#FFC300"/>
</svg>
