<svg width="104" height="55" viewBox="0 0 104 55" fill="none" xmlns="http://www.w3.org/2000/svg">
<path d="M14.529 17.4597C13.4641 17.4597 12.6653 17.2188 12.1329 16.737C11.6004 16.2299 11.3342 15.5326 11.3342 14.6452C11.3342 13.7577 11.6765 13.0224 12.3611 12.4392C13.071 11.8307 13.9458 11.5264 14.9854 11.5264C15.9236 11.5264 16.6843 11.7546 17.2675 12.211C17.8507 12.6674 18.1423 13.314 18.1423 14.1507C18.1423 15.165 17.8126 15.9764 17.1534 16.5849C16.4941 17.1681 15.6193 17.4597 14.529 17.4597ZM21.3751 29.2882C21.7048 29.2882 21.9583 29.453 22.1358 29.7826C22.3387 30.0869 22.4401 30.4799 22.4401 30.9617C22.4401 31.5449 22.3514 32.0013 22.1739 32.3309C21.9964 32.6605 21.7175 32.9521 21.3371 33.2057C19.5622 34.3721 17.1914 35.9822 14.2247 38.036C13.2359 43.31 11.9554 47.4557 10.3833 50.473C8.81123 53.4904 6.8081 54.9991 4.37392 54.9991C3.0554 54.9991 2.00313 54.5934 1.21709 53.782C0.405697 52.9959 0 51.9564 0 50.6632C0 48.8629 0.697291 46.9359 2.09187 44.8821C3.48646 42.8536 6.11081 40.3434 9.96493 37.3514L10.2312 35.4116C10.5861 32.9775 10.8651 30.5814 11.0679 28.2233C11.2201 26.854 11.4609 24.8129 11.7906 22.0998C11.892 21.3645 12.1709 20.832 12.6273 20.5024C13.0837 20.1474 13.781 19.9699 14.7192 19.9699C15.4799 19.9699 15.9743 20.084 16.2025 20.3122C16.4561 20.5404 16.5829 20.8574 16.5829 21.2631C16.5829 22.4294 16.1645 25.6496 15.3277 30.9237L14.9474 33.548C16.9759 32.0266 18.8269 30.7081 20.5004 29.5925C20.83 29.3896 21.1216 29.2882 21.3751 29.2882ZM4.79229 51.3098C5.45155 51.3098 6.1742 50.5618 6.96023 49.0658C7.74627 47.5698 8.4816 45.161 9.16621 41.8394C7.23915 43.4875 5.85725 44.9708 5.0205 46.2893C4.15839 47.6332 3.72734 48.8122 3.72734 49.8265C3.72734 50.8153 4.08232 51.3098 4.79229 51.3098Z" fill="#0C6170"/>
<path d="M23.5874 37.8838C22.4463 37.8838 21.5082 37.364 20.7728 36.3245C20.0629 35.2595 19.7079 33.941 19.7079 32.3689C19.7079 30.4672 19.8347 28.7304 20.0882 27.1583C20.3418 25.5609 20.7602 23.8747 21.3434 22.0998C21.5969 21.3391 21.9519 20.794 22.4083 20.4644C22.8647 20.1347 23.5874 19.9699 24.5762 19.9699C25.1341 19.9699 25.5144 20.0587 25.7173 20.2362C25.9455 20.4136 26.0596 20.6799 26.0596 21.0349C26.0596 21.2377 25.9201 21.9223 25.6412 23.0887C25.3876 24.0269 25.1848 24.8763 25.0327 25.637C24.5255 28.2993 24.272 30.0742 24.272 30.9617C24.272 31.4942 24.3354 31.8745 24.4621 32.1027C24.5889 32.3056 24.7918 32.407 25.0707 32.407C25.451 32.407 25.9201 32.0266 26.478 31.266C27.0611 30.5053 27.6697 29.3516 28.3036 27.8049C28.9628 26.2582 29.5967 24.3565 30.2053 22.0998C30.4081 21.3391 30.7124 20.794 31.1181 20.4644C31.5492 20.1347 32.1831 19.9699 33.0198 19.9699C33.603 19.9699 34.0087 20.046 34.2369 20.1981C34.4651 20.3249 34.5792 20.5785 34.5792 20.9588C34.5792 21.5927 34.2623 23.3296 33.6284 26.1694C32.9184 29.415 32.5634 31.4181 32.5634 32.1788C32.5634 32.6605 32.6648 33.0409 32.8677 33.3198C33.0705 33.5733 33.3368 33.7001 33.6664 33.7001C34.1735 33.7001 34.7694 33.3959 35.454 32.7873C36.164 32.1534 37.1021 31.1392 38.2685 29.7446C38.5728 29.3896 38.9151 29.2121 39.2954 29.2121C39.6251 29.2121 39.8786 29.3643 40.0561 29.6685C40.259 29.9728 40.3604 30.3912 40.3604 30.9237C40.3604 31.9379 40.1195 32.7239 39.6377 33.2818C38.5474 34.6256 37.3684 35.7286 36.1006 36.5907C34.8581 37.4528 33.4382 37.8838 31.8408 37.8838C30.6237 37.8838 29.7235 37.4148 29.1403 36.4766C28.5825 35.5384 28.3036 34.2199 28.3036 32.5211C27.8725 34.2453 27.226 35.5765 26.3638 36.5146C25.5017 37.4274 24.5762 37.8838 23.5874 37.8838Z" fill="#0C6170"/>
<path d="M51.6913 29.2121C52.0209 29.2121 52.2745 29.3643 52.452 29.6685C52.6548 29.9728 52.7562 30.3912 52.7562 30.9237C52.7562 31.9379 52.5153 32.7239 52.0336 33.2818C50.9433 34.6256 49.7515 35.7286 48.4584 36.5907C47.1906 37.4528 45.7453 37.8838 44.1225 37.8838C41.8912 37.8838 40.2303 36.8696 39.14 34.8411C38.0751 32.8127 37.5426 30.1883 37.5426 26.9681C37.5426 23.8747 37.9356 20.3503 38.7217 16.3947C39.533 12.4392 40.7121 9.04154 42.2588 6.20168C43.8309 3.36182 45.6946 1.94189 47.8498 1.94189C49.0669 1.94189 50.0178 2.5124 50.7024 3.65342C51.4124 4.76908 51.7673 6.37917 51.7673 8.48371C51.7673 11.5011 50.9306 15.0002 49.2571 18.981C47.5836 22.9619 45.3142 26.9047 42.449 30.8096C42.6265 31.8491 42.9181 32.5971 43.3238 33.0535C43.7295 33.4846 44.2619 33.7001 44.9212 33.7001C45.9608 33.7001 46.8736 33.4085 47.6597 32.8253C48.4457 32.2168 49.4473 31.1899 50.6643 29.7446C50.9686 29.3896 51.3109 29.2121 51.6913 29.2121ZM47.0131 5.70724C46.4299 5.70724 45.7706 6.75951 45.0353 8.86405C44.3 10.9686 43.6534 13.5802 43.0956 16.699C42.5377 19.8178 42.2335 22.8098 42.1828 25.675C43.983 22.7084 45.4156 19.7417 46.4806 16.7751C47.5456 13.7831 48.078 11.0573 48.078 8.59781C48.078 6.67077 47.723 5.70724 47.0131 5.70724Z" fill="#0C6170"/>
<path d="M56.1098 37.8838C54.6138 37.8838 53.3333 37.5162 52.2683 36.7809C51.2287 36.0202 50.4427 35.0313 49.9102 33.8142C49.3777 32.5971 49.1115 31.2913 49.1115 29.8967C49.1115 27.9697 49.4665 26.2582 50.1764 24.7622C50.9118 23.2408 51.9007 22.0618 53.1431 21.225C54.3855 20.3629 55.7801 19.9319 57.3268 19.9319C58.8229 19.9319 60.1033 20.3122 61.1683 21.0729C62.2332 21.8082 63.032 22.7844 63.5644 24.0015C64.0969 25.2186 64.3632 26.5244 64.3632 27.919C64.3632 29.846 63.9955 31.5702 63.2602 33.0916C62.5248 34.5876 61.5233 35.7666 60.2555 36.6287C59.013 37.4655 57.6311 37.8838 56.1098 37.8838ZM56.5281 33.7762C57.3902 33.7762 58.1129 33.3071 58.6961 32.3689C59.3046 31.4308 59.6089 30.0616 59.6089 28.2613C59.6089 26.8667 59.3553 25.8144 58.8482 25.1045C58.3411 24.3945 57.7325 24.0395 57.0226 24.0395C56.1098 24.0395 55.3491 24.5086 54.7405 25.4468C54.1573 26.3596 53.8657 27.7288 53.8657 29.5544C53.8657 30.9997 54.1193 32.0647 54.6264 32.7493C55.1336 33.4339 55.7675 33.7762 56.5281 33.7762Z" fill="#0C6170"/>
<path fill-rule="evenodd" clip-rule="evenodd" d="M84.446 26.9635C86.0153 26.9635 87.364 28.0397 87.6608 29.5807L89.2487 36.5182C89.2519 36.5325 89.2549 36.5468 89.2575 36.5612C89.3496 37.0734 89.0089 37.5636 88.4967 37.6559C87.9545 37.7535 87.4324 37.4043 87.3151 36.8659L87.2907 36.7575C86.7014 34.0536 86.2672 32.1108 85.987 30.9303L85.9645 30.8376C85.8848 30.5036 85.8185 30.235 85.7653 30.0319C85.5734 29.2988 84.9127 28.9493 84.401 28.945C83.8625 28.9407 83.2835 29.3187 83.1061 30.0319C82.894 30.8849 82.4677 33.1303 81.8278 36.7682C81.7294 37.3275 81.2219 37.72 80.6559 37.6745C80.6237 37.6719 80.591 37.6678 80.5592 37.6618C80.0712 37.5687 79.7505 37.0972 79.8434 36.6091L81.1891 29.5426C81.5455 28.0075 82.87 26.9637 84.446 26.9635ZM90.2975 24.4909C91.4264 23.4008 93.1435 23.2379 94.4274 24.1403L100.388 28.028C100.401 28.0359 100.413 28.0439 100.424 28.0524C100.847 28.3569 100.943 28.9467 100.638 29.3688C100.316 29.8156 99.6972 29.9266 99.2389 29.6208L99.1471 29.5592C96.1082 27.5321 94.1842 26.2726 93.3766 25.7809C92.7295 25.3872 92.0122 25.5947 91.6413 25.9469C91.2507 26.3179 91.0966 26.9922 91.4645 27.6286C91.9045 28.3895 93.1576 30.3007 95.2243 33.362C95.542 33.8326 95.4501 34.4683 95.0114 34.8288C94.9864 34.8493 94.9603 34.8687 94.9333 34.8864C94.5176 35.1586 93.9596 35.0421 93.6872 34.6266L89.7458 28.6091C88.9355 27.2571 89.1637 25.5858 90.2975 24.4909ZM74.7702 24.1354C76.0697 23.2556 77.7845 23.4486 78.8942 24.5583C80.0086 25.6727 80.2072 27.3477 79.3737 28.6852L75.3278 34.6335C75.0483 35.0443 74.4887 35.151 74.0778 34.8717C74.0512 34.8537 74.0251 34.834 74.0006 34.8132C73.5681 34.4451 73.4862 33.8075 73.8122 33.3425C75.9323 30.3173 77.2195 28.4284 77.6725 27.6755C78.0514 27.0456 77.9081 26.3695 77.5241 25.9919C77.1592 25.6331 76.4457 25.4129 75.7917 25.7956C74.9753 26.2732 73.03 27.4988 69.9567 29.4723L69.8639 29.5319C69.4004 29.8296 68.7839 29.7078 68.4694 29.2555C68.1723 28.8281 68.2783 28.2401 68.7057 27.943C68.7177 27.9347 68.7305 27.9264 68.7428 27.9186L74.7702 24.1354ZM102.323 14.1823C102.835 14.0903 103.325 14.4308 103.417 14.943C103.514 15.4852 103.166 16.0073 102.628 16.1247L102.518 16.1481C98.9492 16.9259 96.7073 17.4351 95.7926 17.6745C95.0597 17.8664 94.711 18.5261 94.7067 19.0378C94.7022 19.5763 95.0794 20.1552 95.7926 20.3327C96.6454 20.5448 98.8915 20.971 102.53 21.611C103.089 21.7095 103.482 22.2179 103.436 22.7839C103.434 22.816 103.429 22.8479 103.423 22.8796C103.33 23.3678 102.859 23.6882 102.371 23.5954L95.3044 22.2507C93.769 21.8944 92.7253 20.569 92.7253 18.9928C92.7253 17.4236 93.8006 16.0748 95.3415 15.778L102.279 14.1911C102.293 14.1878 102.308 14.1849 102.323 14.1823ZM65.7077 14.7536C65.8 14.2416 66.2903 13.9017 66.8024 13.9938C66.8168 13.9964 66.8311 13.9993 66.8454 14.0026L73.7829 15.5895C75.3239 15.8863 76.4001 17.235 76.4001 18.8044C76.4 20.3804 75.3562 21.7049 73.821 22.0612L66.7545 23.4069C66.2663 23.4998 65.7949 23.1792 65.7018 22.6911C65.6958 22.6593 65.6917 22.6266 65.6891 22.5944C65.6437 22.0285 66.0361 21.5209 66.5954 21.4225C70.2332 20.7826 72.4786 20.3563 73.3317 20.1442C74.045 19.9668 74.423 19.3878 74.4186 18.8493C74.4143 18.3376 74.0648 17.6769 73.3317 17.485C72.4167 17.2456 70.1748 16.7373 66.6061 15.9596L66.4977 15.9362C65.9593 15.8189 65.6101 15.2959 65.7077 14.7536ZM83.3073 15.6208C83.4925 15.6208 83.6467 15.6565 83.7692 15.7282C83.8944 15.7968 83.9944 15.8864 84.069 15.9967C84.1466 16.1071 84.2106 16.2269 84.2614 16.3551C84.3151 16.4806 84.3829 16.6499 84.4635 16.862L86.1794 21.1003C86.3136 21.4226 86.3805 21.6571 86.3805 21.8034C86.3805 21.9556 86.3164 22.0959 86.1881 22.2243C86.0627 22.3497 85.9103 22.4127 85.7311 22.4128C85.6267 22.4128 85.5372 22.3929 85.4626 22.3542C85.388 22.3184 85.3248 22.2693 85.2741 22.2067C85.2233 22.141 85.1678 22.0422 85.1081 21.9108C85.0514 21.7766 85.0024 21.6587 84.9606 21.5573L84.6471 20.7321H81.9762L81.6628 21.5749C81.5404 21.9031 81.4358 22.1254 81.3493 22.2419C81.2627 22.3554 81.1206 22.4128 80.9235 22.4128C80.7564 22.4127 80.6085 22.3515 80.4801 22.2292C80.3517 22.1067 80.2878 21.9675 80.2878 21.8122C80.2878 21.7227 80.3029 21.6303 80.3327 21.5348C80.3625 21.4393 80.4114 21.3057 80.4801 21.1354L82.1608 16.8708C82.2086 16.7483 82.265 16.6015 82.3307 16.4313C82.3994 16.2583 82.471 16.115 82.5456 16.0016C82.6232 15.8882 82.723 15.7969 82.8454 15.7282C82.9708 15.6565 83.1251 15.6208 83.3073 15.6208ZM88.0739 15.6208C88.274 15.6208 88.4358 15.6876 88.5583 15.8219C88.6837 15.9534 88.7458 16.1556 88.7458 16.4274V21.6012C88.7458 21.8727 88.6834 22.0762 88.5583 22.2106C88.4358 22.345 88.274 22.4128 88.0739 22.4128C87.8828 22.4128 87.7247 22.345 87.5993 22.2106C87.4769 22.0732 87.4157 21.87 87.4157 21.6012V16.4274C87.4157 16.1586 87.4768 15.9563 87.5993 15.8219C87.7217 15.6878 87.8799 15.6208 88.0739 15.6208ZM82.3258 19.7331H84.2887L83.2985 17.0231L82.3258 19.7331ZM93.776 2.93913C94.0805 2.51701 94.6693 2.42184 95.0915 2.72624C95.5383 3.04855 95.6502 3.66635 95.3444 4.12468L95.2829 4.21745C93.2558 7.25618 91.9962 9.1794 91.5045 9.98698C91.1106 10.6342 91.3182 11.3513 91.6706 11.7223C92.0415 12.1129 92.7158 12.267 93.3522 11.8991C94.1133 11.459 96.0246 10.2059 99.0856 8.13933C99.5563 7.82156 100.192 7.91433 100.552 8.35319C100.573 8.37806 100.591 8.40441 100.609 8.43132C100.881 8.84714 100.765 9.40508 100.349 9.67741L94.3317 13.6178C92.9798 14.428 91.3084 14.2008 90.2135 13.0671C89.1234 11.9382 88.9606 10.2201 89.8629 8.9362L93.7516 2.97526C93.7596 2.96309 93.7675 2.95092 93.776 2.93913ZM74.0329 2.65007C74.4549 2.34574 75.0437 2.44123 75.3483 2.86296C75.3569 2.87491 75.3656 2.88773 75.3737 2.90007L79.2614 8.86101C80.1637 10.1449 80.0009 11.862 78.9108 12.9909C77.8159 14.1247 76.1446 14.3529 74.7926 13.5426L68.7751 9.60124C68.3594 9.32884 68.243 8.7709 68.5153 8.35515C68.533 8.32815 68.5524 8.30197 68.5729 8.27702C68.9334 7.83836 69.5681 7.74647 70.0387 8.06413C73.1005 10.1312 75.0123 11.384 75.7731 11.8239C76.4095 12.1918 77.0838 12.0377 77.4547 11.6471C77.807 11.2761 78.0137 10.559 77.6198 9.91179C77.1281 9.10418 75.8687 7.18018 73.8415 4.14128L73.7799 4.04948C73.4741 3.59116 73.586 2.97237 74.0329 2.65007ZM80.8825 0.0035842C81.4485 -0.0419174 81.956 0.350576 82.0544 0.909834C82.6942 4.54762 83.1205 6.79303 83.3327 7.64616C83.51 8.35935 84.0891 8.73736 84.6276 8.73308C85.1393 8.72881 85.8 8.37926 85.9919 7.64616C86.2313 6.73118 86.7396 4.48922 87.5172 0.920576L87.5417 0.812178C87.659 0.273873 88.1811 -0.0754201 88.7233 0.0221389C89.2354 0.114406 89.5762 0.604671 89.484 1.11687C89.4815 1.13125 89.4785 1.14559 89.4753 1.15983L87.8874 8.09733C87.5906 9.63838 86.2419 10.7145 84.6725 10.7145C83.0966 10.7144 81.772 9.6706 81.4157 8.13542L80.07 1.06901C79.9771 0.580846 80.2977 0.109419 80.7858 0.0162795C80.8176 0.0102346 80.8503 0.00617913 80.8825 0.0035842Z" fill="#FFC300"/>
</svg>
