<svg width="40" height="40" viewBox="0 0 40 40" fill="none" xmlns="http://www.w3.org/2000/svg">
<path opacity="0.4" d="M33.0503 25.5003L25.5003 33.0503C22.4003 36.1503 17.367 36.1503 14.2503 33.0503L6.93367 25.7337C3.83368 22.6337 3.83368 17.6003 6.93367 14.4837L14.5003 6.95033C16.0837 5.36699 18.267 4.51699 20.5003 4.63366L28.8337 5.03366C32.167 5.18366 34.817 7.83366 34.9837 11.1503L35.3837 19.4837C35.4837 21.7337 34.6337 23.917 33.0503 25.5003Z" fill="white"/>
<path d="M24.1668 20.6332C21.5158 20.6332 19.3668 18.4842 19.3668 15.8332C19.3668 13.1822 21.5158 11.0332 24.1668 11.0332C26.8178 11.0332 28.9668 13.1822 28.9668 15.8332C28.9668 18.4842 26.8178 20.6332 24.1668 20.6332Z" fill="white"/>
<path d="M18.3333 29.5834C18.6499 29.5834 18.9666 29.4667 19.2166 29.2167C19.6999 28.7334 19.6999 27.9334 19.2166 27.4501L12.5499 20.7834C12.0666 20.3001 11.2666 20.3001 10.7833 20.7834C10.2999 21.2667 10.2999 22.0667 10.7833 22.5501L17.4499 29.2167C17.6999 29.4667 18.0166 29.5834 18.3333 29.5834Z" fill="white"/>
</svg>
