<svg width="104" height="55" viewBox="0 0 104 55" fill="none" xmlns="http://www.w3.org/2000/svg">
<path d="M14.529 17.4604C13.4641 17.4604 12.6653 17.2195 12.1329 16.7378C11.6004 16.2307 11.3342 15.5334 11.3342 14.6459C11.3342 13.7585 11.6765 13.0231 12.3611 12.44C13.071 11.8314 13.9458 11.5271 14.9854 11.5271C15.9236 11.5271 16.6843 11.7554 17.2675 12.2118C17.8507 12.6682 18.1423 13.3147 18.1423 14.1515C18.1423 15.1657 17.8126 15.9771 17.1534 16.5856C16.4941 17.1688 15.6193 17.4604 14.529 17.4604ZM21.3751 29.2889C21.7048 29.2889 21.9583 29.4537 22.1358 29.7834C22.3387 30.0876 22.4401 30.4807 22.4401 30.9624C22.4401 31.5456 22.3514 32.002 22.1739 32.3316C21.9964 32.6613 21.7175 32.9529 21.3371 33.2064C19.5622 34.3728 17.1914 35.9829 14.2247 38.0367C13.2359 43.3107 11.9554 47.4564 10.3833 50.4738C8.81123 53.4911 6.8081 54.9998 4.37392 54.9998C3.0554 54.9998 2.00313 54.5941 1.21709 53.7827C0.405697 52.9967 0 51.9571 0 50.6639C0 48.8637 0.697291 46.9366 2.09187 44.8828C3.48646 42.8543 6.11081 40.3441 9.96493 37.3521L10.2312 35.4124C10.5861 32.9782 10.8651 30.5821 11.0679 28.224C11.2201 26.8548 11.4609 24.8136 11.7906 22.1005C11.892 21.3652 12.1709 20.8328 12.6273 20.5031C13.0837 20.1481 13.781 19.9707 14.7192 19.9707C15.4799 19.9707 15.9743 20.0848 16.2025 20.313C16.4561 20.5412 16.5829 20.8581 16.5829 21.2638C16.5829 22.4302 16.1645 25.6504 15.3277 30.9244L14.9474 33.5487C16.9759 32.0274 18.8269 30.7089 20.5004 29.5932C20.83 29.3904 21.1216 29.2889 21.3751 29.2889ZM4.79229 51.3105C5.45155 51.3105 6.1742 50.5625 6.96023 49.0665C7.74627 47.5705 8.4816 45.1617 9.16621 41.8401C7.23915 43.4882 5.85725 44.9715 5.0205 46.29C4.15839 47.6339 3.72734 48.813 3.72734 49.8272C3.72734 50.8161 4.08232 51.3105 4.79229 51.3105Z" fill="#0C6170"/>
<path d="M23.5874 37.8846C22.4463 37.8846 21.5082 37.3648 20.7728 36.3252C20.0629 35.2602 19.7079 33.9417 19.7079 32.3697C19.7079 30.468 19.8347 28.7311 20.0882 27.159C20.3418 25.5616 20.7602 23.8755 21.3434 22.1005C21.5969 21.3399 21.9519 20.7947 22.4083 20.4651C22.8647 20.1355 23.5874 19.9707 24.5762 19.9707C25.1341 19.9707 25.5144 20.0594 25.7173 20.2369C25.9455 20.4144 26.0596 20.6806 26.0596 21.0356C26.0596 21.2384 25.9201 21.9231 25.6412 23.0894C25.3876 24.0276 25.1848 24.877 25.0327 25.6377C24.5255 28.3001 24.272 30.075 24.272 30.9624C24.272 31.4949 24.3354 31.8752 24.4621 32.1034C24.5889 32.3063 24.7918 32.4077 25.0707 32.4077C25.451 32.4077 25.9201 32.0274 26.478 31.2667C27.0611 30.506 27.6697 29.3523 28.3036 27.8056C28.9628 26.2589 29.5967 24.3572 30.2053 22.1005C30.4081 21.3399 30.7124 20.7947 31.1181 20.4651C31.5492 20.1355 32.1831 19.9707 33.0198 19.9707C33.603 19.9707 34.0087 20.0467 34.2369 20.1989C34.4651 20.3256 34.5792 20.5792 34.5792 20.9595C34.5792 21.5934 34.2623 23.3303 33.6284 26.1702C32.9184 29.4157 32.5634 31.4188 32.5634 32.1795C32.5634 32.6613 32.6648 33.0416 32.8677 33.3205C33.0705 33.5741 33.3368 33.7009 33.6664 33.7009C34.1735 33.7009 34.7694 33.3966 35.454 32.788C36.164 32.1541 37.1021 31.1399 38.2685 29.7453C38.5728 29.3904 38.9151 29.2129 39.2954 29.2129C39.6251 29.2129 39.8786 29.365 40.0561 29.6693C40.259 29.9735 40.3604 30.3919 40.3604 30.9244C40.3604 31.9386 40.1195 32.7247 39.6377 33.2825C38.5474 34.6263 37.3684 35.7293 36.1006 36.5914C34.8581 37.4535 33.4382 37.8846 31.8408 37.8846C30.6237 37.8846 29.7235 37.4155 29.1403 36.4773C28.5825 35.5392 28.3036 34.2206 28.3036 32.5218C27.8725 34.246 27.226 35.5772 26.3638 36.5154C25.5017 37.4282 24.5762 37.8846 23.5874 37.8846Z" fill="#0C6170"/>
<path d="M51.6913 29.2129C52.0209 29.2129 52.2745 29.365 52.452 29.6693C52.6548 29.9735 52.7562 30.3919 52.7562 30.9244C52.7562 31.9386 52.5153 32.7247 52.0336 33.2825C50.9433 34.6263 49.7515 35.7293 48.4584 36.5914C47.1906 37.4535 45.7453 37.8846 44.1225 37.8846C41.8912 37.8846 40.2303 36.8703 39.14 34.8419C38.0751 32.8134 37.5426 30.1891 37.5426 26.9689C37.5426 23.8755 37.9356 20.351 38.7217 16.3955C39.533 12.44 40.7121 9.04227 42.2588 6.20241C43.8309 3.36256 45.6946 1.94263 47.8498 1.94263C49.0669 1.94263 50.0178 2.51313 50.7024 3.65415C51.4124 4.76981 51.7673 6.37991 51.7673 8.48444C51.7673 11.5018 50.9306 15.0009 49.2571 18.9818C47.5836 22.9626 45.3142 26.9055 42.449 30.8103C42.6265 31.8499 42.9181 32.5979 43.3238 33.0543C43.7295 33.4853 44.2619 33.7009 44.9212 33.7009C45.9608 33.7009 46.8736 33.4093 47.6597 32.8261C48.4457 32.2175 49.4473 31.1906 50.6643 29.7453C50.9686 29.3904 51.3109 29.2129 51.6913 29.2129ZM47.0131 5.70797C46.4299 5.70797 45.7706 6.76024 45.0353 8.86478C44.3 10.9693 43.6534 13.581 43.0956 16.6997C42.5377 19.8185 42.2335 22.8105 42.1828 25.6757C43.983 22.7091 45.4156 19.7424 46.4806 16.7758C47.5456 13.7838 48.078 11.0581 48.078 8.59854C48.078 6.6715 47.723 5.70797 47.0131 5.70797Z" fill="#0C6170"/>
<path d="M56.1098 37.8846C54.6138 37.8846 53.3333 37.5169 52.2683 36.7816C51.2287 36.0209 50.4427 35.032 49.9102 33.815C49.3777 32.5979 49.1115 31.292 49.1115 29.8975C49.1115 27.9704 49.4665 26.2589 50.1764 24.7629C50.9118 23.2416 51.9007 22.0625 53.1431 21.2258C54.3855 20.3637 55.7801 19.9326 57.3268 19.9326C58.8229 19.9326 60.1033 20.313 61.1683 21.0736C62.2332 21.809 63.032 22.7852 63.5644 24.0022C64.0969 25.2193 64.3632 26.5251 64.3632 27.9197C64.3632 29.8468 63.9955 31.571 63.2602 33.0923C62.5248 34.5883 61.5233 35.7674 60.2555 36.6295C59.013 37.4662 57.6311 37.8846 56.1098 37.8846ZM56.5281 33.7769C57.3902 33.7769 58.1129 33.3078 58.6961 32.3697C59.3046 31.4315 59.6089 30.0623 59.6089 28.262C59.6089 26.8674 59.3553 25.8152 58.8482 25.1052C58.3411 24.3953 57.7325 24.0403 57.0226 24.0403C56.1098 24.0403 55.3491 24.5094 54.7405 25.4475C54.1573 26.3603 53.8657 27.7295 53.8657 29.5552C53.8657 31.0005 54.1193 32.0654 54.6264 32.75C55.1336 33.4346 55.7675 33.7769 56.5281 33.7769Z" fill="#0C6170"/>
<path fill-rule="evenodd" clip-rule="evenodd" d="M84.4459 26.9638C86.0153 26.9638 87.364 28.0399 87.6608 29.581L89.2487 36.5185C89.2519 36.5327 89.2549 36.5471 89.2575 36.5614C89.3496 37.0736 89.0088 37.5639 88.4967 37.6562C87.9545 37.7537 87.4323 37.4045 87.3151 36.8661L87.2907 36.7577C86.7015 34.0542 86.2672 32.1121 85.987 30.9316L85.9645 30.8388C85.8848 30.5046 85.8185 30.2354 85.7653 30.0321C85.5734 29.2991 84.9127 28.9495 84.401 28.9452C83.8625 28.9409 83.2835 29.319 83.1061 30.0321C82.894 30.8851 82.4677 33.1305 81.8278 36.7685C81.7294 37.3277 81.2219 37.7202 80.6559 37.6747C80.6237 37.6721 80.591 37.6681 80.5592 37.662C80.0712 37.5689 79.7505 37.0975 79.8434 36.6093L81.1891 29.5429C81.5455 28.0078 82.8701 26.9639 84.4459 26.9638ZM90.2975 24.4911C91.4264 23.4011 93.1435 23.2382 94.4274 24.1405L100.388 28.0282C100.401 28.0363 100.413 28.044 100.425 28.0527C100.848 28.3571 100.943 28.9469 100.638 29.3691C100.316 29.8159 99.6972 29.9278 99.2389 29.622L99.1471 29.5595C96.1082 27.5323 94.1842 26.2728 93.3766 25.7812C92.7295 25.3875 92.0122 25.5949 91.6413 25.9472C91.2507 26.3181 91.0966 26.9924 91.4645 27.6288C91.9044 28.3897 93.1575 30.3009 95.2243 33.3622C95.542 33.8329 95.4501 34.4686 95.0114 34.829C94.9864 34.8495 94.9603 34.8689 94.9333 34.8866C94.5176 35.1589 93.9596 35.0424 93.6872 34.6269L89.7458 28.6093C88.9355 27.2574 89.1637 25.586 90.2975 24.4911ZM74.7702 24.1357C76.0697 23.2559 77.7845 23.4489 78.8942 24.5585C80.0086 25.6729 80.2072 27.348 79.3737 28.6855L75.3278 34.6337C75.0483 35.0446 74.4888 35.1513 74.0778 34.872C74.0512 34.8539 74.0252 34.8342 74.0006 34.8134C73.5683 34.4455 73.4866 33.8087 73.8122 33.3437C75.9324 30.3184 77.2195 28.4287 77.6725 27.6757C78.0514 27.0459 77.9081 26.3698 77.5241 25.9921C77.1592 25.6333 76.4457 25.4131 75.7917 25.7958C74.9753 26.2735 73.03 27.4991 69.9567 29.4726L69.8639 29.5321C69.4004 29.8299 68.7839 29.7081 68.4694 29.2558C68.1723 28.8284 68.2783 28.2403 68.7057 27.9433C68.7177 27.935 68.7305 27.9266 68.7428 27.9189L74.7702 24.1357ZM102.323 14.1825C102.835 14.0905 103.324 14.4311 103.417 14.9433C103.514 15.4854 103.166 16.0075 102.628 16.1249L102.518 16.1484C98.9492 16.9261 96.7073 17.4353 95.7926 17.6747C95.0597 17.8666 94.711 18.5264 94.7067 19.038C94.7022 19.5766 95.0793 20.1565 95.7926 20.3339C96.6454 20.546 98.8915 20.9713 102.53 21.6112C103.089 21.7097 103.482 22.2181 103.436 22.7841C103.434 22.8162 103.43 22.8482 103.423 22.8798C103.331 23.3681 102.859 23.6885 102.371 23.5956L95.3043 22.2509C93.769 21.8946 92.7252 20.5692 92.7252 18.9931C92.7254 17.4239 93.8006 16.0751 95.3415 15.7782L102.279 14.1913C102.293 14.188 102.308 14.1851 102.323 14.1825ZM65.7077 14.7548C65.7998 14.2425 66.2901 13.9019 66.8024 13.9941C66.8168 13.9967 66.8311 13.9996 66.8454 14.0029L73.7829 15.5898C75.3239 15.8865 76.4001 17.2353 76.4001 18.8046C76.4 20.3806 75.3562 21.7051 73.8209 22.0614L66.7545 23.4071C66.2663 23.5001 65.7949 23.1795 65.7018 22.6913C65.6958 22.6596 65.6917 22.6269 65.6891 22.5946C65.6437 22.0287 66.0362 21.5211 66.5954 21.4228C70.2332 20.7829 72.4786 20.3566 73.3317 20.1445C74.045 19.9671 74.423 19.3881 74.4186 18.8495C74.4143 18.3378 74.0648 17.6772 73.3317 17.4853C72.4167 17.2458 70.1747 16.7375 66.6061 15.9599L66.4977 15.9364C65.9595 15.8192 65.6104 15.2969 65.7077 14.7548ZM93.776 2.93938C94.0805 2.51727 94.6693 2.42212 95.0915 2.72649C95.5383 3.04879 95.6502 3.6666 95.3444 4.12492L95.2829 4.2177C93.2558 7.25645 91.9962 9.17964 91.5045 9.98723C91.1106 10.6344 91.3182 11.3515 91.6706 11.7226C92.0415 12.1132 92.7158 12.2682 93.3522 11.9003C94.1131 11.4604 96.024 10.2065 99.0856 8.13957C99.5563 7.82181 100.192 7.91457 100.552 8.35344C100.573 8.37832 100.591 8.40464 100.609 8.43156C100.881 8.84739 100.765 9.40532 100.349 9.67766L94.3317 13.6181C92.9798 14.4283 91.3084 14.2011 90.2135 13.0673C89.1234 11.9384 88.9606 10.2204 89.8629 8.93645L93.7516 2.97551C93.7596 2.96334 93.7675 2.95117 93.776 2.93938ZM74.0329 2.65031C74.455 2.34589 75.0438 2.44205 75.3483 2.86418C75.3569 2.8761 75.3657 2.88801 75.3737 2.90031L79.2614 8.86125C80.1637 10.1452 80.0008 11.8622 78.9108 12.9911C77.8159 14.1249 76.1446 14.3531 74.7926 13.5429L68.7751 9.60149C68.3594 9.32907 68.243 8.77113 68.5153 8.35539C68.533 8.3284 68.5524 8.3022 68.5729 8.27727C68.9334 7.83865 69.5681 7.74675 70.0387 8.06438C73.1005 10.1314 75.0122 11.3843 75.7731 11.8241C76.4095 12.1921 77.0838 12.038 77.4547 11.6474C77.807 11.2763 78.0137 10.5592 77.6198 9.91203C77.1281 9.10442 75.8687 7.18043 73.8415 4.14152L73.7799 4.04973C73.4741 3.5914 73.586 2.97262 74.0329 2.65031ZM80.8825 0.00382869C81.4485 -0.0416772 81.9559 0.350853 82.0543 0.910079C82.6944 4.5485 83.1206 6.79459 83.3327 7.64738C83.5102 8.3603 84.0892 8.7376 84.6276 8.73332C85.1392 8.72905 85.7998 8.38021 85.9918 7.64738C86.2313 6.73269 86.7394 4.49006 87.5172 0.920821L87.5417 0.812422C87.659 0.274152 88.1811 -0.0751719 88.7233 0.0223834C89.2354 0.114635 89.5762 0.604917 89.484 1.11711C89.4814 1.13148 89.4785 1.14584 89.4752 1.16008L87.8874 8.09758C87.5906 9.63862 86.2419 10.7148 84.6725 10.7148C83.0965 10.7146 81.7719 9.67087 81.4157 8.13566L80.07 1.06926C79.977 0.58096 80.2985 0.109468 80.7868 0.016524C80.8184 0.0105298 80.8504 0.00640969 80.8825 0.00382869Z" fill="#FFC300"/>
</svg>
